# xmcd CD database file
#
# Track frame offsets:
#	150
#	14713
#	29362
#	45257
#	62008
#	77759
#	93633
#	113440
#	130785
#	150288
#	167065
#	183736
#	195892
#	211476
#	228075
#	245894
#	261763
#	277075
#	294635
#
# Disc length: 4134 seconds
#
# Revision: 2
# Processed by: cddbd v1.5.2PL0 Copyright (c) Steve Scherf et al.
# Submitted via: CDex 2.06
#
DISCID=05102413
DTITLE=Various Artist - 44th Country Music Awards of Australia 2016 Winners CD2
DYEAR=2016
DGENRE=Country
TTITLE0=Jasmine Rae - Heartbeat
TTITLE1=O'Shea - Parade
TTITLE2=Travis Collins - Curves
TTITLE3=Ashleigh Dallas - Fear The Dark
TTITLE4=Mickey Pye - When She's Drinkin'
TTITLE5=Kevin Bennett and The Flood - Born White
TTITLE6=Jetty Road - Hearts On Fire
TTITLE7=Tom Maxwell - Just Drift Back In Time
TTITLE8=James Blundell - When The Lights Go Out
TTITLE9=Catherine Britt and Steve Earle - You And Me Against The World
TTITLE10=Troy Cassar-Daley featuring Jimmy Barnes - Two Weeks On, Two Weeks Off
TTITLE11=Graham Rodger - Territory Man
TTITLE12=Michael Fix - Two Time Shuffle
TTITLE13=Beccy Cole featuring Sara Storer and Gina Jeffreys - Precious Times
TTITLE14=Pete Denahy - Singin' Shoes
TTITLE15=Norma O'Hara Murphy - Bundarra Dust
TTITLE16=The Hillbilly Goats - Rabbit In A Log
TTITLE17=Brothers3 - Brothers Never Part
TTITLE18=Tori Darke - So Gone
EXTD=YEAR: 2016
EXTT0=
EXTT1=
EXTT2=
EXTT3=
EXTT4=
EXTT5=
EXTT6=
EXTT7=
EXTT8=
EXTT9=
EXTT10=
EXTT11=
EXTT12=
EXTT13=
EXTT14=
EXTT15=
EXTT16=
EXTT17=
EXTT18=
PLAYORDER=
